# xmcd CD database file
#
# Track frame offsets:
#	150
#	14828
#	27916
#	41548
#	58812
#	73869
#	92972
#	105828
#	119366
#	137961
#	152666
#	169389
#	183114
#	196654
#	220413
#	233262
#	271134
#	286926
#	302164
#	317845
#
# Disc length: 4572 seconds
#
# Revision: 0
# Processed by: cddbd v1.5.2PL0 Copyright (c) Steve Scherf et al.
# Submitted via: CDex 1.79
#
DISCID=1c11da14
DTITLE=100 Hits Jazz - Cd 4 Big Bands
DYEAR=1900
DGENRE=Jazz
TTITLE0=Benny Goodmann-Stompin' at The Savoy
TTITLE1=Glenn Miller-In The Mood
TTITLE2=Harry James-Two O' Clock Jump
TTITLE3=Count Basie-April In Paris
TTITLE4=Woody Herman-Laura
TTITLE5=Stan Kenton-Intermission Riff
TTITLE6=Gene Krupa-Sweet Georgia Brown
TTITLE7=Tommy Dorsey-Summertime
TTITLE8=Dizzy Gillespie
TTITLE9=Benny Carter-Prelude To a Kiss
TTITLE10=Duke Ellington-Sophisticated Lady
TTITLE11=Artie Shaw-Tea For Two
TTITLE12=Harry James-Melancholy Rhapsody
TTITLE13=Count Basie-Shiny Stocking
TTITLE14=Woody Herman-Moten Stomp
TTITLE15=Duke Ellington-Solitude
TTITLE16=Glenn Miller-Begin The Beguine
TTITLE17=Stan Kenton-Eager Beaver
TTITLE18=Benny Goodman-Jumpin' at The Woodside
TTITLE19=Dizzy Gillespie-Night in Tunisia
EXTD=
EXTT0=
EXTT1=
EXTT2=
EXTT3=
EXTT4=
EXTT5=
EXTT6=
EXTT7=
EXTT8=
EXTT9=
EXTT10=
EXTT11=
EXTT12=
EXTT13=
EXTT14=
EXTT15=
EXTT16=
EXTT17=
EXTT18=
EXTT19=
PLAYORDER=
